<svg width="150" height="30" viewBox="0 0 150 30" fill="none" xmlns="http://www.w3.org/2000/svg">
<path d="M0.820312 0.0926914C0.820312 0.224442 1.48525 1.54926 1.7498 1.95915C2.18594 2.6179 3.05823 3.46696 3.72317 3.87685C4.03777 4.06716 4.60976 4.33798 4.99586 4.47705C6.31144 4.96013 6.44014 4.96745 11.5809 5.02601C15.9352 5.07724 16.2641 5.08456 16.8432 5.23095C18.8452 5.72136 20.0464 6.84123 20.4539 8.58326C20.6184 9.27129 20.6184 10.5522 20.4611 11.1744C20.2037 12.1698 19.6317 13.0701 18.8238 13.7362C18.2518 14.2046 16.9791 14.8487 16.164 15.0829C14.7984 15.4855 14.3408 15.5148 10.3154 15.5002C8.19186 15.4928 6.61173 15.5148 6.61173 15.5514C6.61173 15.6392 7.81292 17.6667 9.75769 20.8726C10.6371 22.3219 11.8026 24.2615 12.3531 25.1911C13.7545 27.5773 14.2264 28.1628 15.2846 28.9021C15.8423 29.29 16.3714 29.5242 17.1936 29.7438C17.8085 29.9122 18.0444 29.9341 19.6532 29.9634L21.4335 30L21.2333 29.6487C20.6255 28.5727 17.9658 24.4079 15.9138 21.3118C15.2703 20.3456 14.734 19.5185 14.7126 19.4746C14.6911 19.4161 15.02 19.3795 15.7779 19.3502C17.787 19.277 19.5102 18.8451 21.126 18.018C24.0217 16.5249 25.5733 14.0729 25.8593 10.5376C26.2311 5.9629 24.2362 2.52275 20.2823 0.927111C19.4387 0.590414 18.0873 0.23908 17.1936 0.121969C16.5358 0.0414562 0.820312 0.0121765 0.820312 0.0926914Z" fill="black"/>
<path d="M58.0559 0.130371C54.2092 0.635412 50.0051 3.07279 47.5169 6.2348C46.5445 7.46447 45.6722 9.09671 45.2289 10.4947C44.7928 11.8708 44.6855 12.6466 44.6855 14.4692C44.6927 16.2844 44.7856 17.1628 45.1503 18.6486C46.616 24.6945 51.2778 28.7202 57.9844 29.7449C58.7065 29.8547 59.3214 29.8766 61.8096 29.8693C65.2201 29.8693 65.3059 29.862 66.6429 29.1813C68.2159 28.3908 69.2955 27.1831 69.8175 25.624L69.9605 25.2142L64.5766 25.2361C59.3286 25.2508 59.1856 25.2434 58.4491 25.097C54.1306 24.1967 51.2635 21.2763 50.4484 16.9432C49.9264 14.1618 50.098 12.0538 51.0275 10.0043C52.3574 7.05458 54.817 5.20275 57.9129 4.81482C58.2704 4.77091 59.636 4.73431 60.9516 4.73431C63.8902 4.73431 65.17 4.6538 65.8493 4.43421C66.9789 4.07556 67.9513 3.40217 68.6878 2.45796C69.1096 1.909 69.6745 0.833038 69.8103 0.320677L69.8747 0.0498562L64.2191 0.0571766C61.1017 0.0644951 58.3347 0.101093 58.0559 0.130371Z" fill="black"/>
<path d="M89.444 0.0949345C88.6003 0.182768 87.4992 0.373074 86.8414 0.534101C78.1543 2.70798 73.0993 11.2791 75.7519 19.3671C76.4598 21.5336 77.5895 23.3928 79.2125 25.0543C80.5066 26.3791 81.8437 27.3599 83.4381 28.1504C85.8261 29.3435 88.0426 29.8632 90.7667 29.8705C93.0618 29.8778 94.9137 29.5411 96.8942 28.7506C102.071 26.6792 105.739 22.1704 106.461 16.959C106.597 15.9562 106.597 13.9141 106.461 12.9772C105.503 6.45554 100.226 1.33924 93.3335 0.234005C92.6186 0.116894 90.0732 0.0290604 89.444 0.0949345ZM93.1047 4.87454C95.8646 5.50401 98.2598 7.14357 99.747 9.42724C100.805 11.0448 101.313 12.6551 101.399 14.6167C101.592 19.0597 98.7389 23.1585 94.3917 24.7103C93.1405 25.1568 92.4684 25.2592 90.8025 25.2592C89.4082 25.2592 89.2438 25.2446 88.443 25.0543C86.3195 24.5419 84.6893 23.627 83.1807 22.0899C81.6292 20.4943 80.714 18.7303 80.3708 16.6442C80.2206 15.7366 80.2135 14.2142 80.3636 13.3358C81.0715 9.15642 84.3318 5.77483 88.5217 4.88918C89.5441 4.6696 89.5298 4.67692 91.0527 4.69887C92.1395 4.71351 92.59 4.75743 93.1047 4.87454Z" fill="black"/>
<path d="M108.606 0.531366C108.763 0.809505 112.259 7.21403 116.378 14.7604C120.503 22.3068 123.906 28.4844 123.942 28.4844C123.985 28.4844 127.474 22.0945 131.7 14.2846L139.379 0.0848789L137.863 0.0629196C136.691 0.0482807 136.219 0.07024 135.775 0.158073C134.66 0.392296 133.573 0.999811 132.758 1.86351C132.329 2.30999 132.007 2.87359 128.954 8.42906C124.228 17.0367 123.985 17.4686 123.942 17.4686C123.921 17.4686 123.713 17.1099 123.485 16.6781C121.719 13.3917 116.006 3.01266 115.791 2.68329C115.148 1.71712 114.44 1.08764 113.482 0.633839C112.524 0.180031 112.066 0.106836 110.079 0.0629196L108.334 0.0336418L108.606 0.531366Z" fill="black"/>
<path d="M32.151 12.6234C32.1725 24.4223 32.1796 25.0664 32.3083 25.5202C32.723 27.0427 33.6596 28.1552 35.1039 28.8579C35.6902 29.1434 36.6126 29.4581 37.1989 29.5679L37.4276 29.6118V17.9958C37.4276 5.5308 37.4276 5.64059 37.0702 4.5134C36.7055 3.40084 36.0191 2.34684 35.1897 1.65881C34.6535 1.205 33.3665 0.538929 32.6515 0.348623L32.1367 0.202234L32.151 12.6234Z" fill="black"/>
<path d="M149.281 0.387178C148.515 0.606764 148.015 0.840986 147.386 1.25819C146.063 2.12921 145.284 3.27105 144.798 5.01308L144.64 5.57668L144.619 17.6025L144.604 29.6211L144.798 29.5772C147.543 28.9623 149.109 27.6741 149.702 25.5442L149.86 24.9732L149.881 14.4332C149.888 8.63621 149.888 3.0661 149.881 2.05602L149.86 0.211512L149.281 0.387178Z" fill="black"/>
</svg>
