<svg width="202" height="92" viewBox="0 0 202 92" fill="none" xmlns="http://www.w3.org/2000/svg">
<path d="M7.972 82.4874C7.972 81.3834 7.14 80.7114 5.924 80.7114H3.524V84.1834H5.988C7.22 84.1834 7.972 83.5594 7.972 82.4874ZM7.684 77.6394C7.684 76.6314 6.964 76.0394 5.78 76.0394H3.524V79.2234H5.78C6.964 79.2234 7.684 78.6634 7.684 77.6394ZM9.796 82.6794C9.796 84.3754 8.42 85.6714 6.148 85.6714H1.7V74.5514H5.94C8.292 74.5514 9.54 75.8474 9.54 77.4154C9.54 78.7594 8.724 79.5754 7.652 79.9594C8.836 80.1674 9.796 81.3514 9.796 82.6794ZM13.6021 81.0314V85.6714H11.7781V76.8554H13.6021V78.1354C14.1141 77.2554 14.9941 76.7114 16.2421 76.7114V78.5994H15.7781C14.4341 78.5994 13.6021 79.1594 13.6021 81.0314ZM17.9188 85.6714V76.8554H19.7428V85.6714H17.9188ZM18.8468 75.6874C18.1908 75.6874 17.6788 75.1754 17.6788 74.5194C17.6788 73.8634 18.1908 73.3514 18.8468 73.3514C19.4868 73.3514 19.9988 73.8634 19.9988 74.5194C19.9988 75.1754 19.4868 75.6874 18.8468 75.6874ZM28.3935 85.6714V80.7434C28.3935 79.1274 27.5135 78.2954 26.1855 78.2954C24.8415 78.2954 23.9615 79.1274 23.9615 80.7434V85.6714H22.1375V76.8554H23.9615V77.8634C24.5535 77.1434 25.5295 76.7114 26.5855 76.7114C28.6495 76.7114 30.2015 78.0074 30.2015 80.4714V85.6714H28.3935ZM31.9201 81.2234C31.9201 78.5034 33.7601 76.7114 36.0801 76.7114C37.5201 76.7114 38.5921 77.3834 39.1361 78.1354V76.8554H40.9761V85.8154C40.9761 88.2154 39.4241 90.0234 36.6721 90.0234C34.3201 90.0234 32.5761 88.8554 32.3521 86.9034H34.1601C34.4321 87.8154 35.4081 88.4394 36.6721 88.4394C38.0801 88.4394 39.1361 87.5754 39.1361 85.8154V84.3434C38.5761 85.0954 37.5201 85.8154 36.0801 85.8154C33.7601 85.8154 31.9201 83.9434 31.9201 81.2234ZM39.1361 81.2554C39.1361 79.3674 37.8401 78.2954 36.4641 78.2954C35.1041 78.2954 33.7921 79.3194 33.7921 81.2234C33.7921 83.1274 35.1041 84.2314 36.4641 84.2314C37.8401 84.2314 39.1361 83.1594 39.1361 81.2554ZM43.3719 85.6714V76.8554H45.1959V85.6714H43.3719ZM44.2999 75.6874C43.6439 75.6874 43.1319 75.1754 43.1319 74.5194C43.1319 73.8634 43.6439 73.3514 44.2999 73.3514C44.9399 73.3514 45.4519 73.8634 45.4519 74.5194C45.4519 75.1754 44.9399 75.6874 44.2999 75.6874ZM53.8466 85.6714V80.7434C53.8466 79.1274 52.9666 78.2954 51.6386 78.2954C50.2946 78.2954 49.4146 79.1274 49.4146 80.7434V85.6714H47.5906V76.8554H49.4146V77.8634C50.0066 77.1434 50.9826 76.7114 52.0386 76.7114C54.1026 76.7114 55.6546 78.0074 55.6546 80.4714V85.6714H53.8466ZM57.3733 81.2234C57.3733 78.5034 59.2133 76.7114 61.5333 76.7114C62.9733 76.7114 64.0453 77.3834 64.5893 78.1354V76.8554H66.4293V85.8154C66.4293 88.2154 64.8773 90.0234 62.1253 90.0234C59.7733 90.0234 58.0293 88.8554 57.8053 86.9034H59.6133C59.8853 87.8154 60.8613 88.4394 62.1253 88.4394C63.5333 88.4394 64.5893 87.5754 64.5893 85.8154V84.3434C64.0293 85.0954 62.9733 85.8154 61.5333 85.8154C59.2133 85.8154 57.3733 83.9434 57.3733 81.2234ZM64.5893 81.2554C64.5893 79.3674 63.2933 78.2954 61.9173 78.2954C60.5573 78.2954 59.2453 79.3194 59.2453 81.2234C59.2453 83.1274 60.5573 84.2314 61.9173 84.2314C63.2933 84.2314 64.5893 83.1594 64.5893 81.2554ZM72.3733 80.0874C72.3733 76.7594 74.9173 74.4074 78.0533 74.4074C80.3733 74.4074 82.3733 75.5754 83.2213 77.7514H81.0293C80.4373 76.5674 79.3813 76.0074 78.0533 76.0074C75.8453 76.0074 74.2453 77.5754 74.2453 80.0874C74.2453 82.5994 75.8453 84.1834 78.0533 84.1834C79.3813 84.1834 80.4373 83.6234 81.0293 82.4394H83.2213C82.3733 84.6154 80.3733 85.7674 78.0533 85.7674C74.9173 85.7674 72.3733 83.4314 72.3733 80.0874ZM93.7563 81.2554C93.7563 84.0234 91.7083 85.8154 89.1803 85.8154C86.6683 85.8154 84.7643 84.0234 84.7643 81.2554C84.7643 78.4874 86.7483 76.7114 89.2603 76.7114C91.7723 76.7114 93.7563 78.4874 93.7563 81.2554ZM86.6203 81.2554C86.6203 83.2554 87.8043 84.2314 89.1803 84.2314C90.5403 84.2314 91.8843 83.2554 91.8843 81.2554C91.8843 79.2554 90.5883 78.2954 89.2283 78.2954C87.8523 78.2954 86.6203 79.2554 86.6203 81.2554ZM101.815 85.6714V80.7434C101.815 79.1274 100.935 78.2954 99.6074 78.2954C98.2634 78.2954 97.3834 79.1274 97.3834 80.7434V85.6714H95.5594V76.8554H97.3834V77.8634C97.9754 77.1434 98.9514 76.7114 100.007 76.7114C102.071 76.7114 103.623 78.0074 103.623 80.4714V85.6714H101.815ZM105.342 81.2554C105.342 78.5034 107.134 76.7114 109.662 76.7114C111.822 76.7114 113.23 77.7834 113.726 79.6394H111.758C111.454 78.7914 110.75 78.2474 109.662 78.2474C108.19 78.2474 107.214 79.3354 107.214 81.2554C107.214 83.1914 108.19 84.2794 109.662 84.2794C110.75 84.2794 111.422 83.7994 111.758 82.8874H113.726C113.23 84.6154 111.822 85.8154 109.662 85.8154C107.134 85.8154 105.342 84.0234 105.342 81.2554ZM119.256 78.2474C118.024 78.2474 117.032 79.0794 116.84 80.4714H121.72C121.688 79.1114 120.616 78.2474 119.256 78.2474ZM123.384 83.0474C122.888 84.5834 121.496 85.8154 119.336 85.8154C116.808 85.8154 114.936 84.0234 114.936 81.2554C114.936 78.4874 116.728 76.7114 119.336 76.7114C121.848 76.7114 123.624 78.4554 123.624 81.0474C123.624 81.3514 123.608 81.6394 123.56 81.9434H116.824C116.952 83.3994 117.992 84.2794 119.336 84.2794C120.456 84.2794 121.08 83.7354 121.416 83.0474H123.384ZM127.243 78.1514C127.803 77.4154 128.875 76.7114 130.315 76.7114C132.635 76.7114 134.459 78.5034 134.459 81.2234C134.459 83.9434 132.635 85.8154 130.315 85.8154C128.859 85.8154 127.819 85.0794 127.243 84.3914V89.8634H125.419V76.8554H127.243V78.1514ZM132.603 81.2234C132.603 79.3194 131.291 78.2954 129.915 78.2954C128.555 78.2954 127.243 79.3674 127.243 81.2554C127.243 83.1594 128.555 84.2314 129.915 84.2314C131.291 84.2314 132.603 83.1274 132.603 81.2234ZM136.551 83.2234V78.3434H135.511V76.8554H136.551V74.6634H138.391V76.8554H140.535V78.3434H138.391V83.2234C138.391 83.8794 138.647 84.1514 139.415 84.1514H140.535V85.6714H139.095C137.527 85.6714 136.551 85.0154 136.551 83.2234ZM148.792 83.2074C148.792 84.6954 147.496 85.8154 145.416 85.8154C143.304 85.8154 141.816 84.5674 141.736 82.9674H143.624C143.688 83.6874 144.376 84.2794 145.384 84.2794C146.44 84.2794 147 83.8314 147 83.2234C147 81.4954 141.88 82.4874 141.88 79.2554C141.88 77.8474 143.192 76.7114 145.272 76.7114C147.272 76.7114 148.584 77.7834 148.68 79.5434H146.856C146.792 78.7754 146.2 78.2474 145.208 78.2474C144.232 78.2474 143.72 78.6474 143.72 79.2394C143.72 81.0154 148.696 80.0234 148.792 83.2074ZM155.207 83.2234V78.3434H154.167V76.8554H155.207V74.6634H157.047V76.8554H159.191V78.3434H157.047V83.2234C157.047 83.8794 157.303 84.1514 158.071 84.1514H159.191V85.6714H157.751C156.183 85.6714 155.207 85.0154 155.207 83.2234ZM169.272 81.2554C169.272 84.0234 167.224 85.8154 164.696 85.8154C162.184 85.8154 160.28 84.0234 160.28 81.2554C160.28 78.4874 162.264 76.7114 164.776 76.7114C167.288 76.7114 169.272 78.4874 169.272 81.2554ZM162.136 81.2554C162.136 83.2554 163.32 84.2314 164.696 84.2314C166.056 84.2314 167.4 83.2554 167.4 81.2554C167.4 79.2554 166.104 78.2954 164.744 78.2954C163.368 78.2954 162.136 79.2554 162.136 81.2554ZM175.231 74.5514H177.055V84.1994H180.815V85.6714H175.231V74.5514ZM182.341 85.6714V76.8554H184.165V85.6714H182.341ZM183.269 75.6874C182.613 75.6874 182.101 75.1754 182.101 74.5194C182.101 73.8634 182.613 73.3514 183.269 73.3514C183.909 73.3514 184.421 73.8634 184.421 74.5194C184.421 75.1754 183.909 75.6874 183.269 75.6874ZM186.783 85.6714V78.3434H185.743V76.8554H186.783V76.2314C186.783 74.1994 187.823 73.3194 190.127 73.3194V74.8394C189.007 74.8394 188.623 75.2234 188.623 76.2314V76.8554H190.255V78.3434H188.623V85.6714H186.783ZM195.584 78.2474C194.352 78.2474 193.36 79.0794 193.168 80.4714H198.048C198.016 79.1114 196.944 78.2474 195.584 78.2474ZM199.712 83.0474C199.216 84.5834 197.824 85.8154 195.664 85.8154C193.136 85.8154 191.264 84.0234 191.264 81.2554C191.264 78.4874 193.056 76.7114 195.664 76.7114C198.176 76.7114 199.952 78.4554 199.952 81.0474C199.952 81.3514 199.936 81.6394 199.888 81.9434H193.152C193.28 83.3994 194.32 84.2794 195.664 84.2794C196.784 84.2794 197.408 83.7354 197.744 83.0474H199.712Z" fill="white"/>
<path d="M4.99146 0.402313C4.99146 0.566494 5.81611 2.2174 6.1442 2.72818C6.68511 3.54908 7.76692 4.60712 8.59157 5.11789C8.98174 5.35504 9.69112 5.69252 10.17 5.86582C11.8015 6.46781 11.9611 6.47693 18.3367 6.5499C23.7369 6.61374 24.1448 6.62287 24.8631 6.80529C27.3459 7.4164 28.8356 8.81192 29.341 10.9827C29.545 11.8401 29.545 13.4363 29.3499 14.2116C29.0307 15.452 28.3213 16.5739 27.3193 17.4039C26.6099 17.9877 25.0315 18.7903 24.0207 19.0822C22.327 19.5839 21.7595 19.6204 16.7672 19.6021C14.1336 19.593 12.174 19.6204 12.174 19.666C12.174 19.7754 13.6637 22.3019 16.0756 26.297C17.1662 28.1029 18.6116 30.52 19.2944 31.6784C21.0324 34.6518 21.6176 35.3815 22.93 36.3027C23.6216 36.7862 24.2778 37.078 25.2975 37.3517C26.0601 37.5614 26.3528 37.5888 28.3479 37.6253L30.5559 37.6709L30.3076 37.2331C29.5538 35.8923 26.2552 30.7024 23.7103 26.8442C22.9122 25.6402 22.2472 24.6096 22.2206 24.5548C22.194 24.4819 22.6019 24.4363 23.5418 24.3998C26.0335 24.3086 28.1706 23.7704 30.1746 22.7397C33.7658 20.8791 35.69 17.8235 36.0447 13.418C36.5058 7.71739 34.0318 3.4305 29.1282 1.44211C28.0819 1.02254 26.406 0.584736 25.2975 0.438797C24.4818 0.338467 4.99146 0.301983 4.99146 0.402313Z" fill="white"/>
<path d="M75.9737 0.447426C71.2031 1.07678 65.9891 4.11409 62.9033 8.05438C61.6973 9.58671 60.6155 11.6207 60.0658 13.3628C59.5249 15.0776 59.3918 16.0444 59.3918 18.3155C59.4007 20.5776 59.516 21.6721 59.9682 23.5237C61.786 31.0576 67.5675 36.0742 75.885 37.3512C76.7806 37.488 77.5432 37.5153 80.629 37.5062C84.8587 37.5062 84.9651 37.4971 86.6233 36.6488C88.5741 35.6638 89.9131 34.1588 90.5604 32.216L90.7377 31.7052L84.0606 31.7326C77.5521 31.7508 77.3747 31.7417 76.4614 31.5593C71.1055 30.4374 67.5498 26.7981 66.5389 21.3985C65.8916 17.9325 66.1044 15.3056 67.2571 12.7517C68.9064 9.07593 71.9568 6.76831 75.7963 6.28489C76.2397 6.23017 77.9333 6.18456 79.5649 6.18456C83.2094 6.18456 84.7966 6.08423 85.639 5.8106C87.0401 5.36367 88.246 4.52453 89.1593 3.34792C89.6825 2.66384 90.383 1.32305 90.5515 0.684574L90.6313 0.347095L83.6173 0.356216C79.7511 0.365337 76.3195 0.410942 75.9737 0.447426Z" fill="white"/>
<path d="M114.901 0.401314C113.855 0.510765 112.489 0.747913 111.673 0.948574C100.899 3.65752 94.6303 14.3383 97.92 24.417C98.7979 27.1168 100.199 29.4336 102.212 31.5041C103.817 33.155 105.475 34.3772 107.452 35.3623C110.414 36.849 113.163 37.4966 116.541 37.5057C119.388 37.5148 121.684 37.0953 124.141 36.1102C130.561 33.5289 135.109 27.9104 136.005 21.4162C136.174 20.1666 136.174 17.6218 136.005 16.4543C134.817 8.3275 128.273 1.95189 119.725 0.574612C118.838 0.428677 115.681 0.319225 114.901 0.401314ZM119.441 6.35735C122.864 7.14176 125.834 9.18488 127.679 12.0306C128.991 14.0464 129.621 16.053 129.727 18.4975C129.966 24.0339 126.428 29.1417 121.037 31.0754C119.485 31.6318 118.652 31.7595 116.586 31.7595C114.857 31.7595 114.653 31.7412 113.659 31.5041C111.026 30.8656 109.004 29.7255 107.133 27.81C105.209 25.8217 104.074 23.6235 103.648 21.024C103.462 19.893 103.453 17.9958 103.639 16.9013C104.517 11.6932 108.561 7.47924 113.757 6.3756C115.025 6.10196 115.007 6.11109 116.896 6.13845C118.244 6.15669 118.803 6.21142 119.441 6.35735Z" fill="white"/>
<path d="M138.666 0.948467C138.861 1.29507 143.197 9.27598 148.305 18.6798C153.421 28.0836 157.642 35.7817 157.687 35.7817C157.74 35.7817 162.067 27.8191 167.308 18.0869L176.831 0.392082L174.951 0.364719C173.497 0.346478 172.912 0.37384 172.362 0.483292C170.979 0.775166 169.631 1.53221 168.62 2.6085C168.088 3.16488 167.689 3.8672 163.903 10.7901C158.041 21.5164 157.74 22.0546 157.687 22.0546C157.66 22.0546 157.403 21.6076 157.119 21.0695C154.929 16.9741 147.844 4.0405 147.578 3.63005C146.78 2.42607 145.902 1.64167 144.714 1.07616C143.526 0.510654 142.958 0.419445 140.493 0.364719L138.329 0.328236L138.666 0.948467Z" fill="white"/>
<path d="M43.8481 16.018C43.8747 30.7212 43.8835 31.5238 44.0431 32.0893C44.5574 33.9865 45.7191 35.3729 47.5102 36.2485C48.2374 36.6042 49.3812 36.9964 50.1084 37.1333L50.3921 37.188V22.7129C50.3921 7.17975 50.3921 7.31657 49.9488 5.91193C49.4965 4.52553 48.6453 3.2121 47.6167 2.35472C46.9516 1.78922 45.3555 0.959202 44.4688 0.722057L43.8303 0.539635L43.8481 16.018Z" fill="white"/>
<path d="M189.112 0.765865C188.163 1.0395 187.542 1.33137 186.762 1.85127C185.122 2.93667 184.155 4.35955 183.552 6.53036L183.357 7.23269L183.33 22.2186L183.313 37.1953L183.552 37.1406C186.957 36.3744 188.899 34.7691 189.635 32.1149L189.83 31.4035L189.857 18.2691C189.866 11.0453 189.866 4.10417 189.857 2.84546L189.83 0.546959L189.112 0.765865Z" fill="white"/>
</svg>
